# xmcd
# 
# Track frame offsets:
#     200
#     13407
#     34527
#     57510
#     73040
#     103377
#     133222
#     155525
#     175560
#     190750
# 
# Disc length: 2843
# 
# Revision: 14
# Processed by: cddbd v1.5.2PL0 Copyright (c) Steve Scherf et al.
# Submitted via: fre:ac v1.0.31
# 
DISCID=8d0b190a
DTITLE=John Lee Hooker - Mr. Lucky
DYEAR=1991
DGENRE=Blues
TTITLE0=I Want To Hug You
TTITLE1=Mr. Lucky [ft. Robert Cray Band]
TTITLE2=Backstabbers [ft. Albert Collins]
TTITLE3=This Is Hip [ft. Ry Cooder, Nick Lowe, Bobby King and Terry Evans]
TTITLE4=I Cover The Waterfront [ft. Van Morrison and Booker T. Jones]
TTITLE5=Highway 13 [ft. John Hammond]
TTITLE6=Stripped Me Naked [ft. Carlos Santana]
TTITLE7=Susie [ft. Johnnie Winter]
TTITLE8=Crawlin' Kingsnake [ft. Keith Richards]
TTITLE9=Father Was A Jockey [ft. John Hammond]
EXTD=(c) 1991 Blue Rose Productions Inc. YEAR: 1991 ID3G: 0
EXTT0=
EXTT1=
EXTT2=
EXTT3=with Ry Cooder
EXTT4=
EXTT5=
EXTT6=
EXTT7=with Johnny Winter
EXTT8=
EXTT9=
PLAYORDER=
